<svg width="19" height="20" viewBox="0 0 19 20" fill="none" xmlns="http://www.w3.org/2000/svg">
<path fill-rule="evenodd" clip-rule="evenodd" d="M5.06699 2.29213C5.83087 2.23114 6.55603 1.93068 7.13921 1.43355C7.79788 0.872556 8.6348 0.564453 9.5 0.564453C10.3652 0.564453 11.2021 0.872556 11.8608 1.43355C12.444 1.93068 13.1691 2.23114 13.933 2.29213C14.7957 2.36107 15.6056 2.73503 16.2175 3.34696C16.8294 3.9589 17.2034 4.76879 17.2723 5.63144C17.3329 6.39501 17.6333 7.12059 18.1309 7.70366C18.6919 8.36234 19 9.19926 19 10.0645C19 10.9297 18.6919 11.7666 18.1309 12.4252C17.6338 13.0084 17.3333 13.7336 17.2723 14.4975C17.2034 15.3601 16.8294 16.17 16.2175 16.7819C15.6056 17.3939 14.7957 17.7678 13.933 17.8368C13.1691 17.8978 12.444 18.1982 11.8608 18.6954C11.2021 19.2563 10.3652 19.5645 9.5 19.5645C8.6348 19.5645 7.79788 19.2563 7.13921 18.6954C6.55603 18.1982 5.83087 17.8978 5.06699 17.8368C4.20433 17.7678 3.39444 17.3939 2.78251 16.7819C2.17058 16.17 1.79662 15.3601 1.72768 14.4975C1.66669 13.7336 1.36623 13.0084 0.869099 12.4252C0.308103 11.7666 0 10.9297 0 10.0645C0 9.19926 0.308103 8.36234 0.869099 7.70366C1.36623 7.12049 1.66669 6.39532 1.72768 5.63144C1.79662 4.76879 2.17058 3.9589 2.78251 3.34696C3.39444 2.73503 4.20433 2.36107 5.06699 2.29213ZM13.9021 8.52899C14.1185 8.30502 14.2382 8.00505 14.2354 7.69369C14.2327 7.38232 14.1079 7.08448 13.8877 6.8643C13.6675 6.64412 13.3697 6.51923 13.0583 6.51653C12.7469 6.51382 12.447 6.63352 12.223 6.84983L8.31248 10.7603L6.77701 9.22488C6.55305 9.00856 6.25308 8.88886 5.94171 8.89157C5.63035 8.89428 5.3325 9.01917 5.11233 9.23934C4.89215 9.45952 4.76726 9.75736 4.76455 10.0687C4.76185 10.3801 4.88154 10.6801 5.09786 10.904L7.4729 13.2791C7.6956 13.5017 7.99759 13.6268 8.31248 13.6268C8.62737 13.6268 8.92936 13.5017 9.15206 13.2791L13.9021 8.52899Z" fill="#C4C4C4"/>
<path fill-rule="evenodd" clip-rule="evenodd" d="M5.06699 2.29213C5.83087 2.23114 6.55603 1.93068 7.13921 1.43355C7.79788 0.872556 8.6348 0.564453 9.5 0.564453C10.3652 0.564453 11.2021 0.872556 11.8608 1.43355C12.444 1.93068 13.1691 2.23114 13.933 2.29213C14.7957 2.36107 15.6056 2.73503 16.2175 3.34696C16.8294 3.9589 17.2034 4.76879 17.2723 5.63144C17.3329 6.39501 17.6333 7.12059 18.1309 7.70366C18.6919 8.36234 19 9.19926 19 10.0645C19 10.9297 18.6919 11.7666 18.1309 12.4252C17.6338 13.0084 17.3333 13.7336 17.2723 14.4975C17.2034 15.3601 16.8294 16.17 16.2175 16.7819C15.6056 17.3939 14.7957 17.7678 13.933 17.8368C13.1691 17.8978 12.444 18.1982 11.8608 18.6954C11.2021 19.2563 10.3652 19.5645 9.5 19.5645C8.6348 19.5645 7.79788 19.2563 7.13921 18.6954C6.55603 18.1982 5.83087 17.8978 5.06699 17.8368C4.20433 17.7678 3.39444 17.3939 2.78251 16.7819C2.17058 16.17 1.79662 15.3601 1.72768 14.4975C1.66669 13.7336 1.36623 13.0084 0.869099 12.4252C0.308103 11.7666 0 10.9297 0 10.0645C0 9.19926 0.308103 8.36234 0.869099 7.70366C1.36623 7.12049 1.66669 6.39532 1.72768 5.63144C1.79662 4.76879 2.17058 3.9589 2.78251 3.34696C3.39444 2.73503 4.20433 2.36107 5.06699 2.29213ZM13.9021 8.52899C14.1185 8.30502 14.2382 8.00505 14.2354 7.69369C14.2327 7.38232 14.1079 7.08448 13.8877 6.8643C13.6675 6.64412 13.3697 6.51923 13.0583 6.51653C12.7469 6.51382 12.447 6.63352 12.223 6.84983L8.31248 10.7603L6.77701 9.22488C6.55305 9.00856 6.25308 8.88886 5.94171 8.89157C5.63035 8.89428 5.3325 9.01917 5.11233 9.23934C4.89215 9.45952 4.76726 9.75736 4.76455 10.0687C4.76185 10.3801 4.88154 10.6801 5.09786 10.904L7.4729 13.2791C7.6956 13.5017 7.99759 13.6268 8.31248 13.6268C8.62737 13.6268 8.92936 13.5017 9.15206 13.2791L13.9021 8.52899Z" fill="url(#paint0_linear_253_16)"/>
<defs>
<linearGradient id="paint0_linear_253_16" x1="2.40376e-06" y1="9.77657" x2="11.2452" y2="19.1149" gradientUnits="userSpaceOnUse">
<stop stop-color="#21D4FD"/>
<stop offset="1" stop-color="#E40ECF"/>
</linearGradient>
</defs>
</svg>
