<svg width="34" height="34" viewBox="0 0 34 34" fill="none" xmlns="http://www.w3.org/2000/svg">
<path d="M19.7609 13.8046L17 16.5655L19.7609 13.8046ZM17 16.5655L14.2391 19.3264L17 16.5655ZM17 16.5655L19.7609 19.3264L17 16.5655ZM17 16.5655L14.2391 13.8046L17 16.5655ZM25.2828 24.8483C24.1951 25.936 22.9038 26.7988 21.4826 27.3875C20.0614 27.9761 18.5383 28.2791 17 28.2791C15.4617 28.2791 13.9386 27.9761 12.5174 27.3875C11.0962 26.7988 9.80495 25.936 8.71724 24.8483C7.62953 23.7606 6.76672 22.4693 6.17805 21.0481C5.58939 19.627 5.28641 18.1038 5.28641 16.5655C5.28641 15.0273 5.58939 13.5041 6.17806 12.0829C6.76672 10.6618 7.62953 9.37047 8.71724 8.28276C10.914 6.08603 13.8934 4.85193 17 4.85193C20.1066 4.85193 23.086 6.08603 25.2828 8.28276C27.4795 10.4795 28.7136 13.4589 28.7136 16.5655C28.7136 19.6722 27.4795 22.6515 25.2828 24.8483Z" stroke="white" stroke-width="2" stroke-linecap="round" stroke-linejoin="round"/>
</svg>
