<svg width="18" height="19" viewBox="0 0 18 19" fill="none" xmlns="http://www.w3.org/2000/svg">
<path d="M17.0123 11.519L15.6022 11.6982C15.486 12.056 15.3427 12.401 15.1755 12.7287L16.0462 13.85C16.3988 14.3037 16.3575 14.9442 15.9548 15.3342L14.7735 16.5155C14.3798 16.922 13.7392 16.9625 13.2847 16.6107L12.165 15.74C11.8372 15.9072 11.4923 16.0505 11.1337 16.1667L10.9545 17.5745C10.887 18.1392 10.4078 18.5645 9.84 18.5645H8.16C7.59225 18.5645 7.113 18.1392 7.0455 17.5767L6.86625 16.1667C6.50775 16.0505 6.16275 15.908 5.835 15.74L4.7145 16.6107C4.2615 16.9625 3.621 16.922 3.23025 16.5192L2.049 15.3387C1.6425 14.9442 1.60125 14.3037 1.95375 13.8492L2.8245 12.7287C2.6565 12.401 2.514 12.056 2.39775 11.6982L0.99 11.519C0.42525 11.4515 0 10.9722 0 10.4045V8.72445C0 8.1567 0.42525 7.67745 0.98775 7.60995L2.39775 7.4307C2.514 7.07295 2.65725 6.72795 2.8245 6.4002L1.95375 5.27895C1.60125 4.8252 1.6425 4.1847 2.04525 3.7947L3.2265 2.61345C3.621 2.2077 4.26075 2.1672 4.71525 2.51895L5.83575 3.3897C6.1635 3.2217 6.5085 3.07845 6.86625 2.96295L7.0455 1.55595C7.113 0.989704 7.59225 0.564453 8.16 0.564453H9.84C10.4078 0.564453 10.887 0.989702 10.9545 1.5522L11.1337 2.9622C11.4915 3.07845 11.8365 3.2217 12.1642 3.38895L13.2855 2.5182C13.7393 2.1657 14.3798 2.20695 14.7698 2.6097L15.951 3.79095C16.3575 4.18545 16.3988 4.8252 16.0462 5.2797L15.1755 6.4002C15.3435 6.72795 15.4867 7.07295 15.6022 7.4307L17.0093 7.60995C17.574 7.67745 17.9993 8.1567 17.9993 8.72445V10.4045C18 10.9722 17.5748 11.4515 17.0123 11.519ZM9 5.81445C6.93225 5.81445 5.25 7.4967 5.25 9.56445C5.25 11.6322 6.93225 13.3145 9 13.3145C11.0677 13.3145 12.75 11.6322 12.75 9.56445C12.75 7.4967 11.0677 5.81445 9 5.81445Z" fill="url(#paint0_linear_99_59)"/>
<defs>
<linearGradient id="paint0_linear_99_59" x1="18" y1="13.0645" x2="3" y2="6.06445" gradientUnits="userSpaceOnUse">
<stop stop-color="#21D4FD"/>
<stop offset="1" stop-color="#E40ECF"/>
</linearGradient>
</defs>
</svg>
