<svg width="56" height="56" viewBox="0 0 56 56" fill="none" xmlns="http://www.w3.org/2000/svg">
<circle cx="27.5351" cy="27.5351" r="27.5351" fill="#BA0E61"/>
<path d="M22.0763 22.5432C23.4358 20.7547 25.5852 19.5977 28 19.5977C29.9865 19.5977 31.8543 20.3713 33.2591 21.776L33.8391 22.356L38.4795 17.7157L37.8995 17.1357C35.2552 14.4914 31.7395 13.0352 28 13.0352C24.2604 13.0352 20.7447 14.4914 18.1004 17.1356C17.8604 17.3757 17.6304 17.6231 17.4102 17.877L22.0763 22.5432Z" fill="white"/>
<path d="M37.1581 37.6251C37.412 37.4048 37.6595 37.1748 37.8995 36.9348C40.5437 34.2905 42 30.7748 42 27.0353C42 26.1835 41.9229 25.3302 41.7708 24.499L41.6476 23.8264H27.1797V30.3889H34.6419C34.1258 31.4156 33.3876 32.2909 32.4982 32.9652L37.1581 37.6251Z" fill="white"/>
<path d="M31.0407 33.828C30.106 34.2449 29.0748 34.4729 28 34.4729C25.5852 34.4729 23.4358 33.3158 22.0763 31.5273L17.4102 36.1935C17.6304 36.4474 17.8604 36.6949 18.1004 36.9349C20.7447 39.5791 24.2604 41.0354 28 41.0354C30.8391 41.0354 33.5488 40.1953 35.8465 38.6338L31.0407 33.828Z" fill="white"/>
<path d="M21.2113 30.0721C20.7946 29.1443 20.5625 28.1164 20.5625 27.0352C20.5625 25.9541 20.7946 24.9261 21.2113 23.9984L16.4016 19.1887C14.8402 21.4864 14 24.1961 14 27.0352C14 29.8744 14.8402 32.584 16.4016 34.8817L21.2113 30.0721Z" fill="white"/>
</svg>
