<svg width="56" height="56" viewBox="0 0 56 56" fill="none" xmlns="http://www.w3.org/2000/svg">
<circle cx="27.5351" cy="27.5702" r="27.5351" fill="#2085BE"/>
<path d="M40.9934 39.0351V39.034H40.9999V29.4985C40.9999 24.8337 39.9956 21.2402 34.5421 21.2402C31.9205 21.2402 30.1611 22.6789 29.4429 24.0428H29.367V21.6757H24.1963V39.034H29.5805V30.4388C29.5805 28.1757 30.0095 25.9874 32.812 25.9874C35.5735 25.9874 35.6146 28.5701 35.6146 30.584V39.0351H40.9934Z" fill="white"/>
<path d="M15.4287 21.677H20.8194V39.0353H15.4287V21.677Z" fill="white"/>
<path d="M18.1222 13.0352C16.3986 13.0352 15 14.4337 15 16.1573C15 17.8809 16.3986 19.3087 18.1222 19.3087C19.8458 19.3087 21.2443 17.8809 21.2443 16.1573C21.2433 14.4337 19.8447 13.0352 18.1222 13.0352V13.0352Z" fill="white"/>
</svg>
