<svg width="184" height="29" viewBox="0 0 184 29" fill="none" xmlns="http://www.w3.org/2000/svg">
<path fill-rule="evenodd" clip-rule="evenodd" d="M25.6725 3.18373H3.08771V25.5119H25.6725V3.18373ZM3.08771 0.131104H0V3.18373V25.5119V28.5645H3.08771H25.6725H28.7602V25.5119V3.18373V0.131104H25.6725H3.08771ZM20.9013 8.18276L20.3878 10.2371C20.1744 11.0972 19.3887 11.6989 18.4886 11.6989H10.3502L10.8637 9.64148C11.0772 8.78449 11.8597 8.18276 12.7599 8.18276H20.9013ZM9.64595 14.7038C9.85874 13.8354 10.639 13.2226 11.5364 13.2226H17.2263L16.7143 15.3043C16.5015 16.1758 15.7182 16.7886 14.8208 16.7886H12.8101L12.1378 19.5879C11.9219 20.4594 11.1386 21.0753 10.2381 21.0753H8.09782L9.64595 14.7038Z" fill="white"/>
<path d="M41.4295 17.7076V24.3163H37.2578V5.68701H50.2843V9.54884H41.4295V14.009H49.5845V17.7076H41.4295Z" fill="white"/>
<path d="M58.4435 10.0928C59.5021 10.0928 60.48 10.2831 61.3771 10.6639C62.2922 11.0446 63.0817 11.5613 63.7456 12.214C64.4095 12.8668 64.9298 13.6373 65.3066 14.5257C65.6834 15.4141 65.8718 16.366 65.8718 17.3813C65.8718 18.3966 65.6834 19.3485 65.3066 20.2369C64.9298 21.1071 64.4095 21.8686 63.7456 22.5213C63.0817 23.174 62.2922 23.6907 61.3771 24.0715C60.48 24.4522 59.5021 24.6426 58.4435 24.6426C57.3849 24.6426 56.398 24.4613 55.4829 24.0987C54.5858 23.7179 53.8053 23.2012 53.1414 22.5485C52.4775 21.8958 51.9572 21.1253 51.5804 20.2369C51.2215 19.3485 51.0421 18.3966 51.0421 17.3813C51.0421 16.366 51.2305 15.4141 51.6073 14.5257C51.9841 13.6373 52.4954 12.8668 53.1414 12.214C53.8053 11.5613 54.5858 11.0446 55.4829 10.6639C56.398 10.2831 57.3849 10.0928 58.4435 10.0928ZM58.4435 13.5195C57.9231 13.5195 57.4297 13.6192 56.9632 13.8186C56.5146 13.9999 56.1199 14.2628 55.779 14.6073C55.456 14.9518 55.1958 15.3597 54.9985 15.8311C54.819 16.3025 54.7293 16.8192 54.7293 17.3813C54.7293 17.9433 54.819 18.4601 54.9985 18.9315C55.1779 19.4028 55.4291 19.8108 55.7521 20.1553C56.075 20.4998 56.4608 20.7717 56.9094 20.9712C57.3579 21.1706 57.8424 21.2703 58.3627 21.2703C58.8831 21.2703 59.3765 21.1706 59.843 20.9712C60.3095 20.7717 60.7132 20.4998 61.0542 20.1553C61.3951 19.8108 61.6642 19.4028 61.8616 18.9315C62.059 18.4601 62.1576 17.9433 62.1576 17.3813C62.1576 16.8192 62.059 16.3025 61.8616 15.8311C61.6822 15.3597 61.422 14.9518 61.0811 14.6073C60.7581 14.2628 60.3634 13.9999 59.8968 13.8186C59.4483 13.6192 58.9638 13.5195 58.4435 13.5195Z" fill="white"/>
<path d="M67.0806 9.1681V5.68701H70.8217V9.1681H67.0806ZM67.0806 24.3163V10.3647H70.8217V24.3163H67.0806Z" fill="white"/>
<path d="M72.3373 24.3163V5.68701H76.1053V24.3163H72.3373Z" fill="white"/>
<path d="M77.6203 24.3163V20.3728H81.4959V24.3163H77.6203Z" fill="white"/>
<path d="M87.4216 12.5132V24.3163H83.4114V5.68701H87.9599L95.3882 17.5173V5.68701H99.3985V24.3163H94.85L87.4216 12.5132Z" fill="white"/>
<path d="M114.84 21.3247C114.158 22.3581 113.279 23.174 112.202 23.7723C111.144 24.3525 109.843 24.6426 108.3 24.6426C107.187 24.6426 106.183 24.4613 105.286 24.0987C104.406 23.7179 103.644 23.2103 102.998 22.5757C102.37 21.923 101.885 21.1525 101.544 20.2641C101.204 19.3757 101.033 18.4147 101.033 17.3813C101.033 16.3841 101.204 15.4413 101.544 14.5529C101.903 13.6645 102.406 12.8939 103.052 12.2412C103.698 11.5704 104.469 11.0446 105.366 10.6639C106.263 10.2831 107.25 10.0928 108.327 10.0928C109.421 10.0928 110.399 10.2741 111.26 10.6367C112.122 10.9993 112.848 11.4979 113.441 12.1325C114.051 12.767 114.517 13.5195 114.84 14.3897C115.163 15.2419 115.325 16.1756 115.325 17.1909C115.325 17.4629 115.316 17.7439 115.298 18.034C115.28 18.3241 115.271 18.4873 115.271 18.5235H104.72C104.918 19.4119 105.33 20.119 105.958 20.6448C106.604 21.1706 107.412 21.4335 108.381 21.4335C109.224 21.4335 109.942 21.2703 110.534 20.944C111.144 20.5995 111.646 20.1462 112.041 19.5842L114.84 21.3247ZM108.3 13.1931C107.421 13.1931 106.685 13.4197 106.093 13.873C105.519 14.3081 105.106 14.9246 104.855 15.7223H111.557C111.359 14.8702 110.955 14.2356 110.345 13.8186C109.735 13.4016 109.054 13.1931 108.3 13.1931Z" fill="white"/>
<path d="M124.797 10.3647V13.737H121.406V19.3394C121.406 19.974 121.55 20.4272 121.837 20.6992C122.142 20.953 122.608 21.0799 123.236 21.0799H124.797V24.3163H122.967C121.119 24.3163 119.773 23.9174 118.93 23.1196C118.087 22.3038 117.665 21.1071 117.665 19.5298V13.737H115.674V10.3647H117.665V6.77485H121.406V10.3647H124.797Z" fill="white"/>
<path d="M135.854 16.3478L133.97 24.3163H129.233L125.708 10.3647H129.475L131.736 19.9649L134.078 10.3647H137.846L140.16 20.0193L142.448 10.3647H146.082L142.529 24.3163H137.738L135.854 16.3478Z" fill="white"/>
<path d="M153.458 10.0928C154.517 10.0928 155.494 10.2831 156.392 10.6639C157.307 11.0446 158.096 11.5613 158.76 12.214C159.424 12.8668 159.944 13.6373 160.321 14.5257C160.698 15.4141 160.886 16.366 160.886 17.3813C160.886 18.3966 160.698 19.3485 160.321 20.2369C159.944 21.1071 159.424 21.8686 158.76 22.5213C158.096 23.174 157.307 23.6907 156.392 24.0715C155.494 24.4522 154.517 24.6426 153.458 24.6426C152.399 24.6426 151.412 24.4613 150.497 24.0987C149.6 23.7179 148.82 23.2012 148.156 22.5485C147.492 21.8958 146.972 21.1253 146.595 20.2369C146.236 19.3485 146.057 18.3966 146.057 17.3813C146.057 16.366 146.245 15.4141 146.622 14.5257C146.999 13.6373 147.51 12.8668 148.156 12.214C148.82 11.5613 149.6 11.0446 150.497 10.6639C151.412 10.2831 152.399 10.0928 153.458 10.0928ZM153.458 13.5195C152.938 13.5195 152.444 13.6192 151.978 13.8186C151.529 13.9999 151.134 14.2628 150.793 14.6073C150.47 14.9518 150.21 15.3597 150.013 15.8311C149.833 16.3025 149.744 16.8192 149.744 17.3813C149.744 17.9433 149.833 18.4601 150.013 18.9315C150.192 19.4028 150.444 19.8108 150.766 20.1553C151.089 20.4998 151.475 20.7717 151.924 20.9712C152.372 21.1706 152.857 21.2703 153.377 21.2703C153.898 21.2703 154.391 21.1706 154.857 20.9712C155.324 20.7717 155.728 20.4998 156.069 20.1553C156.41 19.8108 156.679 19.4028 156.876 18.9315C157.073 18.4601 157.172 17.9433 157.172 17.3813C157.172 16.8192 157.073 16.3025 156.876 15.8311C156.697 15.3597 156.436 14.9518 156.096 14.6073C155.773 14.2628 155.378 13.9999 154.911 13.8186C154.463 13.6192 153.978 13.5195 153.458 13.5195Z" fill="white"/>
<path d="M162.095 24.3163V10.3647H165.836V12.2684C166.303 11.6339 166.868 11.1262 167.532 10.7455C168.214 10.3647 168.985 10.1743 169.846 10.1743V13.9818C168.465 13.9818 167.451 14.3444 166.805 15.0696C166.177 15.7767 165.863 16.7376 165.863 17.9524V24.3163H162.095Z" fill="white"/>
<path d="M179.533 10.3647H183.785L178.483 17.2997L184 24.3163H179.344L174.957 18.5779V24.3163H171.189V5.68701H174.957V16.6198L179.533 10.3647Z" fill="white"/>
</svg>
