<svg width="30" height="31" viewBox="0 0 30 31" fill="none" xmlns="http://www.w3.org/2000/svg">
<path d="M23.9996 15.5893C23.9996 17.9593 23.5946 19.8793 23.0996 19.8793C22.6046 19.8793 22.1846 17.9593 22.1846 15.5893C22.1846 13.2193 22.5896 11.2993 23.0996 11.2993C23.6096 11.2993 23.9996 13.2193 23.9996 15.5893Z" fill="#F5F5F5"/>
<path d="M21.705 15.5893C21.705 18.2443 20.535 20.3893 19.08 20.3893C17.625 20.3893 16.5 18.2443 16.5 15.5893C16.5 12.9343 17.67 10.7893 19.11 10.7893C20.55 10.7893 21.705 12.9343 21.705 15.5893Z" fill="#F5F5F5"/>
<path d="M16.2 15.5893C16.2 16.5979 15.9009 17.584 15.3405 18.4227C14.7801 19.2614 13.9836 19.915 13.0517 20.301C12.1198 20.6871 11.0943 20.788 10.105 20.5913C9.11574 20.3945 8.20701 19.9088 7.49376 19.1955C6.78051 18.4823 6.29478 17.5735 6.098 16.5842C5.90121 15.5949 6.00221 14.5695 6.38822 13.6376C6.77422 12.7057 7.4279 11.9092 8.26659 11.3488C9.10528 10.7884 10.0913 10.4893 11.1 10.4893C12.4526 10.4893 13.7498 11.0266 14.7062 11.983C15.6627 12.9394 16.2 14.2367 16.2 15.5893Z" fill="#F5F5F5"/>
</svg>
