<svg width="17" height="17" viewBox="0 0 17 17" fill="none" xmlns="http://www.w3.org/2000/svg">
<path d="M16.3737 3.42158H13.9477C14.1455 3.05706 14.2044 2.60244 14.0924 2.13416C13.9178 1.40387 13.2662 0.551025 12.0042 0.551025C11.0742 0.551025 9.95012 1.33109 9.36284 1.79603C9.18981 1.93298 8.8283 2.23049 8.49998 2.57054C8.17162 2.23049 7.81015 1.93298 7.63712 1.79603C7.04988 1.33105 5.92584 0.551025 4.99579 0.551025C3.7338 0.551025 3.08213 1.40387 2.90751 2.13416C2.79552 2.60244 2.85444 3.05706 3.05227 3.42158H0.626322C0.280968 3.42158 0 3.70255 0 4.0479V6.60534C0 6.9507 0.280968 7.23167 0.626322 7.23167H1.25653C1.37164 7.23167 1.4653 7.32532 1.4653 7.44044V15.8228C1.4653 16.1681 1.74627 16.4491 2.09162 16.4491H14.9084C15.2537 16.4491 15.5347 16.1681 15.5347 15.8228V7.44044C15.5347 7.32532 15.6284 7.23167 15.7435 7.23167H16.3737C16.719 7.23167 17 6.9507 17 6.60534V4.0479C17 3.70255 16.719 3.42158 16.3737 3.42158ZM11.6879 10.5878C11.1773 11.3641 8.97957 13.2102 8.50332 13.2102C8.03696 13.2102 5.81924 11.3575 5.31209 10.5878C5.05817 10.2025 4.878 9.77724 4.90782 9.21836C4.96084 8.22902 5.76972 7.41204 6.76047 7.41204C7.77892 7.41204 8.37208 8.49867 8.50006 8.49867C8.64629 8.49867 9.26476 7.41204 10.2397 7.41204C11.2303 7.41204 12.0392 8.22898 12.0922 9.21836C12.122 9.77729 11.9424 10.2008 11.6879 10.5878Z" fill="#14131E"/>
</svg>
