<svg width="30" height="31" viewBox="0 0 30 31" fill="none" xmlns="http://www.w3.org/2000/svg">
<path d="M22.7098 10.1592L20.8198 21.5892C20.7864 21.7897 20.7034 21.9786 20.5781 22.1386C20.4529 22.2987 20.2896 22.4247 20.103 22.5053C19.9165 22.5859 19.7127 22.6184 19.5104 22.5999C19.308 22.5814 19.1136 22.5124 18.9448 22.3992L13.7098 18.8742C13.603 18.8023 13.5138 18.7072 13.4489 18.596C13.384 18.4848 13.3451 18.3604 13.335 18.2321C13.3249 18.1037 13.3439 17.9748 13.3906 17.8548C13.4373 17.7348 13.5105 17.627 13.6048 17.5392L18.5548 12.8592C18.6017 12.8032 18.6276 12.7325 18.6282 12.6594C18.6287 12.5862 18.6038 12.5152 18.5577 12.4584C18.5115 12.4017 18.4471 12.3627 18.3754 12.3483C18.3037 12.3338 18.2293 12.3448 18.1648 12.3792L11.5798 16.7892C11.2625 16.9981 10.9025 17.1334 10.5262 17.1853C10.1499 17.2372 9.76675 17.2044 9.40475 17.0892L6.59975 16.2642C6.49999 16.2214 6.41498 16.1503 6.35525 16.0596C6.29551 15.969 6.26367 15.8628 6.26367 15.7542C6.26367 15.6457 6.29551 15.5395 6.35525 15.4488C6.41498 15.3582 6.49999 15.2871 6.59975 15.2442L15.2548 11.4642L20.6398 9.25923L21.3448 8.98923C21.5162 8.93691 21.6982 8.92873 21.8737 8.96544C22.0491 9.00216 22.2125 9.08258 22.3487 9.19926C22.4848 9.31594 22.5893 9.4651 22.6524 9.63292C22.7155 9.80073 22.7352 9.98176 22.7098 10.1592Z" fill="#F5F5F5"/>
</svg>
