<svg width="30" height="31" viewBox="0 0 30 31" fill="none" xmlns="http://www.w3.org/2000/svg">
<path d="M24 10.0541C23.6335 10.8002 23.0329 11.406 22.29 11.7791V12.3641C22.2925 14.2663 21.7862 16.1345 20.8236 17.7752C19.861 19.4158 18.4771 20.7691 16.8153 21.6949C15.1536 22.6206 13.2745 23.0851 11.3728 23.0401C9.47114 22.9951 7.61611 22.4423 6 21.4391C6.25951 21.4616 6.52049 21.4616 6.78 21.4391C8.50974 21.435 10.1866 20.8425 11.535 19.7591C10.7562 19.721 10.0047 19.4606 9.36936 19.0087C8.73401 18.5567 8.24145 17.9322 7.95 17.2091C8.19716 17.2571 8.44823 17.2822 8.7 17.2841C8.97703 17.2771 9.25299 17.247 9.525 17.1941C8.82178 16.9496 8.18858 16.5378 7.68 15.9941C7.02164 15.3025 6.63312 14.3977 6.585 13.4441C7.04649 13.701 7.5583 13.8545 8.085 13.8941C8.17942 13.9089 8.27558 13.9089 8.37 13.8941L8.16 13.7291C7.54227 13.2252 7.08378 12.5531 6.84 11.7941C6.72074 11.4361 6.65996 11.0613 6.66 10.6841C6.66565 10.037 6.836 9.40205 7.155 8.83906C7.25525 8.99517 7.37082 9.14089 7.5 9.27406C7.725 9.52906 7.965 9.78406 8.22 10.0241C8.94973 10.7249 9.78488 11.307 10.695 11.7491C11.0524 11.9369 11.4234 12.0973 11.805 12.2291C12.1051 12.3348 12.4105 12.425 12.72 12.4991C13.3396 12.6508 13.9727 12.7412 14.61 12.7691H14.88C14.7114 12.1351 14.7114 11.468 14.88 10.8341C14.9386 10.5977 15.0295 10.3706 15.15 10.1591C15.27 9.95885 15.4054 9.76827 15.555 9.58906L15.66 9.45406C16.0011 9.05448 16.4195 8.72794 16.89 8.49406C17.1206 8.38458 17.3619 8.29913 17.61 8.23906L18 8.17906C18.1847 8.16362 18.3703 8.16362 18.555 8.17906C19.0741 8.17953 19.5874 8.28776 20.0625 8.49691C20.5376 8.70605 20.9641 9.01155 21.315 9.39406C21.5022 9.37991 21.6879 9.3498 21.87 9.30406C22.323 9.21428 22.7585 9.05221 23.16 8.82406C23.321 8.74168 23.472 8.64101 23.61 8.52406C23.388 9.31349 22.9073 10.0055 22.245 10.4891C22.8518 10.4534 23.4468 10.3059 24 10.0541Z" fill="#F5F5F5"/>
</svg>
